<mxfile host="65bd71144e">
    <diagram id="Jnl6kUCybLxdBcl5fcnF" name="ページ1">
        <mxGraphModel dx="694" dy="270" grid="1" gridSize="10" guides="1" tooltips="1" connect="1" arrows="1" fold="1" page="1" pageScale="1" pageWidth="827" pageHeight="1169" math="0" shadow="0">
            <root>
                <mxCell id="0"/>
                <mxCell id="1" parent="0"/>
                <mxCell id="2" value="" style="rounded=0;whiteSpace=wrap;html=1;fillColor=#FFFFFF;fontColor=#333333;strokeColor=#666666;" parent="1" vertex="1">
                    <mxGeometry x="160" y="50" width="400" height="270" as="geometry"/>
                </mxCell>
                <mxCell id="11" value="" style="rounded=1;whiteSpace=wrap;html=1;fillColor=none;strokeColor=#000000;dashed=1;" parent="1" vertex="1">
                    <mxGeometry x="170.01" y="60" width="170" height="233.44" as="geometry"/>
                </mxCell>
                <mxCell id="18" value="" style="rounded=0;whiteSpace=wrap;html=1;dashed=1;fillColor=none;strokeColor=#99004D;" parent="1" vertex="1">
                    <mxGeometry x="180.01" y="166.88" width="150" height="50" as="geometry"/>
                </mxCell>
                <mxCell id="16" value="" style="endArrow=classic;startArrow=classic;html=1;strokeColor=#000000;entryX=0.5;entryY=0;entryDx=0;entryDy=0;exitX=0.5;exitY=1;exitDx=0;exitDy=0;" parent="1" source="18" target="15" edge="1">
                    <mxGeometry width="50" height="50" relative="1" as="geometry">
                        <mxPoint x="240" y="230" as="sourcePoint"/>
                        <mxPoint x="260" y="210" as="targetPoint"/>
                    </mxGeometry>
                </mxCell>
                <mxCell id="4" value="" style="shape=image;imageAspect=0;aspect=fixed;verticalLabelPosition=bottom;verticalAlign=top;image=data:image/png,iVBORw0KGgoAAAANSUhEUgAAAYoAAABQCAQAAACtpfpmAAAABGdBTUEAALGPC/xhBQAAACBjSFJNAAB6JgAAgIQAAPoAAACA6AAAdTAAAOpgAAA6mAAAF3CculE8AAAAAmJLR0QA/4ePzL8AAAAHdElNRQfnBQEJIiFTwwR+AAAMlUlEQVR42u2daXQUVRbHfwEyEg2jgAI6oMgyqCiKBx0QxlEBUUcWkwAiEAaZYURQcWEZcAA16IC4sDoCB5TVAIb1gAwuIJsIqCgiIqMgEDYFMRwStvR86IFUd1fXfd1dS7r7/etL0nXrVdV99X/bve/eFHxI6MN4vMOrPErpwKUctzz/ez7gIqGMZXRR0Hg0qMJSKgoym+hEscX77S0lmn6Nf3j7AD7xOMUdHj7fWIUndOeoID5rBsViKc5UdyofiXc+QA3LMi4rNZoe5S0lyigpfB5XoyEjj5GiTA73O9K2Sg3XaTqyR1eRXaSAyuRxoVaWAgaxVNT4LK6z+a7Z9BZlnmCVrh47SQE3MVErSwHFdGGnIFOBPC628Z6NFermbd7QlWM3KaAzT2l1KeAorflVkKnHtAg0b41qzOUCQeYT/q4rxglSwEju0QpTwHayxRWmNgyxaYI9h+qCzAGyOKmrxRlSlGUmtbXKFLCQHFFmCFk23Gk8fxQn2B3Yp6vEKVJAJfLElXgNgKG8K0ikMJXrY7zLo/xNlOnNal0dTpICGjCNFK02ET66s02QSSePS2K4x228JspMYJKuDKdJARkM1GpTQAEP8IsgU5c5lI2y/MuZy28EmXU8qSvCDVJADn/WilPADh7krCDTkheiKrs8C7hCkNlPe07paogc5aIi0iwa841rA5HwWCZ+dHbiTMRXLOc5nhdkBrKF3Cgm2LcKEkW0Iz+iMk+yJCq9VLF4lk0ciKLEr70f/UZzbLfV/GSFMRZPUfon/Snkiro8wc0RltpXoYZ6uPaO91k8RWa8TgmjOxbYZn5KZFJAOl+JutzFpRGUeBenxRJfd/ENNSkMx1BNCiXU5LCoy/eVB7JXcUgsbbU4BdeksHmifQ5DaKsnZQrYxUPi3Kc5I5TKSuNdLhNkfiRDT7Cd6iny2Cm0SAXU1z2FEgYo9LzdFWYos8VSCmnk8rsl1fBpMg04LlTBjpjMT8lDCrXP+RYbqPUX198tyUihspdsedTmp2QiBaSxSfygf6SKRQktOSOW8LIHb5Z0c4o8cax7t7gSrwFQSCaHBZka5IWdItdkltj8fOD13ubEn1NM/j9tlgitUzEddU+hBJXF1LGmV6os7P4Q0cKu7iliWH0qpquwlyyFqRGbn5ITH9JflOlj4vmawhTRo7aQTH7SKnanpwC4hmOetVKJ1FMATFGInhK8R2KIeI2zvbWeaJuQAtqKE+73o/KjSj5SlOdT8RPfz+8MV7RSmGAP9/CNktZ4J+8la86/dLergCIyOSTIVGPe+X3X9cgVJ9grbNrcqhFRTwEpzLPB/KR7CoCmnBR1+RYAFfhalHTeVqR7irDkkfeSTRDNTxoAa3lalOlGL6UYUcfJEDczaThECpW9ZOWZZ2l+0jiHcUwRZUYzW4wm6CObrVqd3pFCZS/ZlRbmJw0jHmGNIJFKB7GU55mvVektKfx7yaTx8itarQo4TfuYQ88s0t4EpYEUkMMcQaIPf9WKVcAB2scUpOxbsi0C62u4SAofPcRR7ASaadUqYH0M4SwLyOCYVqETiMbgdpzWbLS0YKcyl0YuxKXb7VC5HfjQJf2/TWMeieK6Yh4S1wI1XCSFfy/ZMkuTUjXmcqfjEUwrO1Sum0sFj3Mtf4r4qqFRRt7QcGT45McKBgsSTXhTq1dpwt0x4rRaCzx169CkCIuRvCNIdItqYJB8OEgbCiOQ3043h/LmacRICh8Ps1mQGRPFwCAZ8XkEE26V/BcaHpFCZS9ZKrlC8kENP6YzRnGCLWdK0vCQFLCbB4VgklVZqLPlKeFpVipIvSTm1NPwmBQqe8ka6gm3Es6QxfeiVCa/1aoq7aSA10TXti48oRWtgJ/J4IQgc43ODxIPpIDebBQkXqGVVrUCtihkJmrLs1pRpZ8URbRjv6VEWWZRSytbAbMYJcoMo7VWVGknBeSTJUQv1dnyVDGAZWKdzXQhXGkSw65gA+t4inGWEjcyjSybjU6rHPIS/dnFGqjBnoD/i+nMp9SxvKYCefxB77cLQBVDnvcjjAw7ZmlBC26hDpdwEcc5wk428B6rA79M1T3aMiaKu4n7R/GyibhH20iJgybziGvFkEI+3nM4XKk6Ssce7WsNdzVfxbuQZ9gXdp97N+OoyT5SpPKxUJFnuU+TwgB/uJtTJrmwHxBDCvmizJaXrKS4le8Efa4qCSxkHymgGnuFGx8RBgbJRYoppnGe/BiuEACtgyaFIinu4YRCxPZdXG0/KaAxRcKNv4nQ/JS4pHja8Cbrz8d5KplOLxYrsYAbNCkUSFGfAsXsXF+Rhu156z4RXdu0+cmPwOBxjUPs/irbiNJZ5FFQ5XhCCpNJN/x/iOHcRS0qUZfWTKTIcO56+tnfUwBMEPn4z6TvKa4yyYMX6mhfj19EXa7wfMJd2nuKO4PycwWPVK5mi+H8Yco7QYpUVooT7tZJTYo0NpsGVg51tG/DWZEWIzQpLEkx2nBmG6km117BEYNMcyfS/p6mY9DaOyHj5WQ2P4VLXZBKLtWDfluksMbUn056jGSBhoa/J3PaRCKfqYb/bnQmUvhB2rLG0mU8mc1PA8OGza/KIpoG7cJ7jvpkiatY37FJf/1hYNzJH66xnmEgy1Ynhk9+dLHJ/JRowycpc900kwZkq6jL3WIi4eQdPhlTHygFjyvj2EPOYLQg0YphSddq1WWO0BR0pWvQLwUKIZR1uNLwMAZC6kNtL0kBz/CRIDG4lJif3EI688Ww+T+yPOS3HXQU09M3C+vvk+ww6rMi68iWPf6cGj4BVOK/MZufEmf4lMLcGHJpD1YwPfXQwyeT4VM6+SHJ6HJobNVjO0kKuFFMTy9ly0scUgxT+Ky7W1AqV4FSt2pSmFi025jO446xhP40MhstOUsKyBRd26zNT4lCChWLwyhh8PWlWEI+V2hSmPg+daUw7DMeZhJN3SUFvByT+SkxSKFim5ZTadY0sYMHH+tCvKg0KQBuZqOl3tZyh5ukKMNSsSo7JTQpVDLX7VLyYmqhkJ7+DU2KMN9hR9ZYeh2PObeC5zwpoKLoy15Io4QlhYq/6wlTG7cZ+inMTHpqUoRFbZ5kediZ7kI/LdwghcpesnDmp/gnxYs2p4afqpCe/nZNCkuk0pRnWW8y333ZPVKo7CVbbWp+indSqOyhezGiEtOE0bEPHwdCvKg0KcxQg8fZFvDEZ6hfzrWHns9LDLKUaMZI+kZUZjvHM2AYsUAIEWqGBkwXd4+siMiV3h/Dd5Pg1lGVhTSLKJZ5cmIPYxjPAHLO11JZst3rKdTG1j0i6incPSpE/MaV2CmW+n1UqWeaKaSnn6Z7CmUY3cu/KOMiK1X2ko3zxPzkDMoyQ/S0OU6bqALqrFGIjNKVx5KozTf2x76ApdgW549KYa9+y/B39XKuPngBGWzgYguJ8iygEfkJUU0juFeQ8PFw1KnhR3OD6NbxKltF/7P4QVWDS9BPfBHSKxubmhIMpP35v3syKUzZxowfFdwcPvkhW3YDzU/xOnzqrFDisJg0WZ4N4h1+OhefIgGGT20N5W4IOdvdcNboAjgyYME1HDoZpPaXcZ3v8l6yJrwe963aTUxU0ERsqeGLaCf2qZXJi9P8IBdQP6gZ2heg32ohlCmBsRdZG9Agm8cdS2do4NVu9xRq3qI947qnqMz3YmnbLYeRqrhNYcI9M+56ihQGUYSPs7xBmqFnNMZumhPgyHdfwML37QH96c8BRuLuIQ6AdYN63F5ekALSxb1kJean+CNFOT4Sy/qV62zSZS+FJ38mzkjxmKGEfxt+nx1Q9kpakU5ZajE0oGn4MmgR/NmgZ9rKUFpyPXVpQndyORVw9qAXc4pz7DyqaH6KP1KMFUs6y/026vJNhfvdG1ek+Dbg2Uv0Xl/B86uYu0PmXp9HUMsP+ldAvCAF3C3sVfaxmbQ4JEVXhZIG26pJOYZvNOFKvSRFoEvQNYYzfaOKsHulgr0ooGa8IgUMUjI/xRcpblaIWTrf9giJ1dgj3nWbY9ny7CeFcfh5KMj5p79FY1rMsDC6raLgqX2MbiVr5V6RIoV3xAd9LK5IUdWzj1OO4esjz6FwpfaTouH5puUsXUxWJ9ea3utTk+jtRrSzWMIuYJxxe5Z3pAgXKc94nCYvbkiRyioPhzHZCm8wKG7sFPWYxmcspnmY83Xox2I+I58jfMd/yAm7tz243L7M4XMOUYiPo+xmJaPJDFy2TjHY+4LxgwsBtqrTRJCoyLFSsnL+ruAQ2EBhOvsx6x17viwLNwY/ipnugAvl5RaO6mvZG38mkv8Bx1t11Iy0YV4AAAAldEVYdGRhdGU6Y3JlYXRlADIwMjMtMDUtMDFUMDk6MzQ6MzMrMDA6MDAN/QZ0AAAAJXRFWHRkYXRlOm1vZGlmeQAyMDIzLTA1LTAxVDA5OjM0OjMzKzAwOjAwfKC+yAAAAABJRU5ErkJggg==;" parent="1" vertex="1">
                    <mxGeometry x="190" y="183.76" width="80" height="16.24" as="geometry"/>
                </mxCell>
                <mxCell id="7" value="" style="shape=image;imageAspect=0;aspect=fixed;verticalLabelPosition=bottom;verticalAlign=top;image=data:image/png,iVBORw0KGgoAAAANSUhEUgAAAIAAAACACAMAAAD04JH5AAAAolBMVEUAAAAxeMYwd8UwcM8weMUwd8cweccweMQwd78yeMcxecUwd8Uxd8UxecYxeMUwcL9+q9t+qtxXktDm7veYu+PY5fWyzOlxothlmdRYkdBLiM2+1e1yodjZ5vS/1ezL3fHM3fCYu+Ll7vjy9/vY5vRkmtSlw+ayzOpyothKic2lxOZLic2Ls9+/1e3Z5fSlw+c+gMqLs96YvOKxzOr///8xeMYqO335AAAAEHRSTlMA34AQvyBfYCB/z8/Pz78Qi8soFQAAAk5JREFUeF7szsENgDAQBLE5HhCkkFSz/beGKALdZ1yBgX2vtHhOPqPSpgZQaVSbK60OZlot0oz8xYABAwYMGDBgwIABAwYMGDBgwIABAwYMGDDwtm8nO1LDQACGQ8OABNLQ2XpdnJTHA8YGTLr8/q/GcsJTJmkO5br0f26pP1k+VEVy2Pvvxx40/kpDr47jaX8bAP8/Ajh0SmMmNe5LAD6rGSxYbsAOcDbDCwgKURLQAIoCGo2iAKdRFOAAZQGfUBbgUBhAD0APfttYa83WX843A0YSJAAYSfkD0FOIf+XWlzxgOZUAhphvi2m9JT9xa2AEfMEkCFnmGtgAity1bM5yAdoEoONMPABMAmGA/AmgKQ5oMakvDnjCtGtpwIZMoLYs4Ae+DOqigIA02LECqJOm6nIAg9mgDpwACqXpq2UGLM+kV8sNoCMBJfADoseZusALWBZAwwxY3s06fkB0m1kBA4C0hrm7yAxYJnTMgGWCYQHQzAbzARuAXkfAXDUngG5CtCdGAG3SSDIlAdEpAvCsANqEL/paFkAFUBZAJxVdHGAwrTgg6hKAuQm8LQFQ3a0nAEwABBvz7TBpYAL8e/IETLqyAfKEcMS0mhOAqOrEEDzZFiz7V7L+6E+7w+GwP3lFl5UhsgKWq4UB36IsQFthgI+ygCnKAnwUBYCJjIARF9JT4N2O3QRLf8++njd+0JipfTbl3hc023EznNs/EN2eL8/ehPv7ghnAHXAHPMoC3lcrWcDb6qPs0++qqh4EBa8eqt+9+yADeLN6XVU/AZaNDaYVEGRKAAAAAElFTkSuQmCC;" parent="1" vertex="1">
                    <mxGeometry x="290" y="176.88" width="30" height="30" as="geometry"/>
                </mxCell>
                <mxCell id="15" value="" style="shape=image;imageAspect=0;aspect=fixed;verticalLabelPosition=bottom;verticalAlign=top;dashed=1;strokeColor=#000000;image=data:image/svg+xml,PHN2ZyB4bWxucz0iaHR0cDovL3d3dy53My5vcmcvMjAwMC9zdmciIHZpZXdCb3g9IjAgMCAyNjIgMzMiIGZpbGw9Im5vbmUiPjxnIGNsaXAtcnVsZT0iZXZlbm9kZCIgY2xpcC1wYXRoPSJ1cmwoI3ByZWZpeF9fY2xpcDApIiBmaWxsLXJ1bGU9ImV2ZW5vZGQiPjxwYXRoIGQ9Ik0yNyAwYy03LjIgMC0xMS43IDMuNi0xMy41IDEwLjggMi43LTMuNiA1Ljg1LTQuOTUgOS40NS00LjA1IDIuMDU0LjUxMyAzLjUyMiAyLjAwNCA1LjE0NyAzLjY1M0MzMC43NDQgMTMuMDkgMzMuODA4IDE2LjIgNDAuNSAxNi4yYzcuMiAwIDExLjctMy42IDEzLjUtMTAuOC0yLjcgMy42LTUuODUgNC45NS05LjQ1IDQuMDUtMi4wNTQtLjUxMy0zLjUyMi0yLjAwNC01LjE0Ny0zLjY1M0MzNi43NTYgMy4xMSAzMy42OTIgMCAyNyAwek0xMy41IDE2LjJDNi4zIDE2LjIgMS44IDE5LjggMCAyN2MyLjctMy42IDUuODUtNC45NSA5LjQ1LTQuMDUgMi4wNTQuNTE0IDMuNTIyIDIuMDA0IDUuMTQ3IDMuNjUzQzE3LjI0NCAyOS4yOSAyMC4zMDggMzIuNCAyNyAzMi40YzcuMiAwIDExLjctMy42IDEzLjUtMTAuOC0yLjcgMy42LTUuODUgNC45NS05LjQ1IDQuMDUtMi4wNTQtLjUxMy0zLjUyMi0yLjAwNC01LjE0Ny0zLjY1M0MyMy4yNTYgMTkuMzEgMjAuMTkyIDE2LjIgMTMuNSAxNi4yeiIgZmlsbD0iIzM4YmRmOCIvPjxwYXRoIGQ9Ik04MC45OTYgMTMuNjUyaC00LjcxMnY5LjEyYzAgMi40MzIgMS41OTYgMi4zOTQgNC43MTIgMi4yNDJWMjguN2MtNi4zMDguNzYtOC44MTYtLjk4OC04LjgxNi01LjkyOHYtOS4xMmgtMy40OTZWOS43aDMuNDk2VjQuNTk2bDQuMTA0LTEuMjE2VjkuN2g0LjcxMnYzLjk1MnpNOTguOTU4IDkuN2g0LjEwNHYxOWgtNC4xMDR2LTIuNzM2Yy0xLjQ0NCAyLjAxNC0zLjY4NiAzLjIzLTYuNjUgMy4yMy01LjE2OCAwLTkuNDYyLTQuMzctOS40NjItOS45OTQgMC01LjY2MiA0LjI5NC05Ljk5NCA5LjQ2Mi05Ljk5NCAyLjk2NCAwIDUuMjA2IDEuMjE2IDYuNjUgMy4xOTJWOS43em0tNi4wMDQgMTUuNThjMy40MiAwIDYuMDA0LTIuNTQ2IDYuMDA0LTYuMDggMC0zLjUzNC0yLjU4NC02LjA4LTYuMDA0LTYuMDgtMy40MiAwLTYuMDA0IDIuNTQ2LTYuMDA0IDYuMDggMCAzLjUzNCAyLjU4NCA2LjA4IDYuMDA0IDYuMDh6bTE2Ljk0OC0xOC40M2MtMS40NDQgMC0yLjYyMi0xLjIxNi0yLjYyMi0yLjYyMmEyLjYyNyAyLjYyNyAwIDAxMi42MjItMi42MjIgMi42MjcgMi42MjcgMCAwMTIuNjIyIDIuNjIyYzAgMS40MDYtMS4xNzggMi42MjItMi42MjIgMi42MjJ6TTEwNy44NSAyOC43di0xOWg0LjEwNHYxOWgtNC4xMDR6bTguODU0IDBWLjk2aDQuMTA0VjI4LjdoLTQuMTA0em0zMC43NDItMTloNC4zMzJsLTUuOTY2IDE5aC00LjAyOGwtMy45NTItMTIuODA2LTMuOTkgMTIuODA2aC00LjAyOGwtNS45NjYtMTloNC4zMzJsMy42ODYgMTMuMTEgMy45OS0xMy4xMWgzLjkxNGwzLjk1MiAxMy4xMSAzLjcyNC0xMy4xMXptOS40MjQtMi44NWMtMS40NDQgMC0yLjYyMi0xLjIxNi0yLjYyMi0yLjYyMmEyLjYyNyAyLjYyNyAwIDAxMi42MjItMi42MjIgMi42MjcgMi42MjcgMCAwMTIuNjIyIDIuNjIyYzAgMS40MDYtMS4xNzggMi42MjItMi42MjIgMi42MjJ6bS0yLjA1MiAyMS44NXYtMTloNC4xMDR2MTloLTQuMTA0em0xOC44NDgtMTkuNDk0YzQuMjU2IDAgNy4yOTYgMi44ODggNy4yOTYgNy44MjhWMjguN2gtNC4xMDRWMTcuNDUyYzAtMi44ODgtMS42NzItNC40MDgtNC4yNTYtNC40MDgtMi42OTggMC00LjgyNiAxLjU5Ni00LjgyNiA1LjQ3MlYyOC43aC00LjEwNHYtMTloNC4xMDR2Mi40MzJjMS4yNTQtMS45NzYgMy4zMDYtMi45MjYgNS44OS0yLjkyNnpNMjAwLjQxOCAyLjFoNC4xMDR2MjYuNmgtNC4xMDR2LTIuNzM2Yy0xLjQ0NCAyLjAxNC0zLjY4NiAzLjIzLTYuNjUgMy4yMy01LjE2OCAwLTkuNDYyLTQuMzctOS40NjItOS45OTQgMC01LjY2MiA0LjI5NC05Ljk5NCA5LjQ2Mi05Ljk5NCAyLjk2NCAwIDUuMjA2IDEuMjE2IDYuNjUgMy4xOTJWMi4xem0tNi4wMDQgMjMuMThjMy40MiAwIDYuMDA0LTIuNTQ2IDYuMDA0LTYuMDggMC0zLjUzNC0yLjU4NC02LjA4LTYuMDA0LTYuMDgtMy40MiAwLTYuMDA0IDIuNTQ2LTYuMDA0IDYuMDggMCAzLjUzNCAyLjU4NCA2LjA4IDYuMDA0IDYuMDh6bTIzLjg2NCAzLjkxNGMtNS43MzggMC0xMC4wMzItNC4zNy0xMC4wMzItOS45OTQgMC01LjY2MiA0LjI5NC05Ljk5NCAxMC4wMzItOS45OTQgMy43MjQgMCA2Ljk1NCAxLjkzOCA4LjQ3NCA0LjkwMmwtMy41MzQgMi4wNTJjLS44MzYtMS43ODYtMi42OTgtMi45MjYtNC45NzgtMi45MjYtMy4zNDQgMC01Ljg5IDIuNTQ2LTUuODkgNS45NjYgMCAzLjQyIDIuNTQ2IDUuOTY2IDUuODkgNS45NjYgMi4yOCAwIDQuMTQyLTEuMTc4IDUuMDU0LTIuOTI2bDMuNTM0IDIuMDE0Yy0xLjU5NiAzLjAwMi00LjgyNiA0Ljk0LTguNTUgNC45NHptMTUuMzE0LTE0LjI1YzAgMy40NTggMTAuMjIyIDEuMzY4IDEwLjIyMiA4LjM5OCAwIDMuOC0zLjMwNiA1Ljg1Mi03LjQxIDUuODUyLTMuOCAwLTYuNTM2LTEuNzEtNy43NTItNC40NDZsMy41MzQtMi4wNTJjLjYwOCAxLjcxIDIuMTI4IDIuNzM2IDQuMjE4IDIuNzM2IDEuODI0IDAgMy4yMy0uNjA4IDMuMjMtMi4xMjggMC0zLjM4Mi0xMC4yMjItMS40ODItMTAuMjIyLTguMjg0IDAtMy41NzIgMy4wNzgtNS44MTQgNi45NTQtNS44MTQgMy4xMTYgMCA1LjcgMS40NDQgNy4wMyAzLjk1MmwtMy40NTggMS45MzhjLS42ODQtMS40ODItMi4wMTQtMi4xNjYtMy41NzItMi4xNjYtMS40ODIgMC0yLjc3NC42NDYtMi43NzQgMi4wMTR6bTE3LjUxOCAwYzAgMy40NTggMTAuMjIyIDEuMzY4IDEwLjIyMiA4LjM5OCAwIDMuOC0zLjMwNiA1Ljg1Mi03LjQxIDUuODUyLTMuOCAwLTYuNTM2LTEuNzEtNy43NTItNC40NDZsMy41MzQtMi4wNTJjLjYwOCAxLjcxIDIuMTI4IDIuNzM2IDQuMjE4IDIuNzM2IDEuODI0IDAgMy4yMy0uNjA4IDMuMjMtMi4xMjggMC0zLjM4Mi0xMC4yMjItMS40ODItMTAuMjIyLTguMjg0IDAtMy41NzIgMy4wNzgtNS44MTQgNi45NTQtNS44MTQgMy4xMTYgMCA1LjcgMS40NDQgNy4wMyAzLjk1MmwtMy40NTggMS45MzhjLS42ODQtMS40ODItMi4wMTQtMi4xNjYtMy41NzItMi4xNjYtMS40ODIgMC0yLjc3NC42NDYtMi43NzQgMi4wMTR6IiBmaWxsPSIjMGYxNzJhIi8+PC9nPjxkZWZzPjxjbGlwUGF0aCBpZD0icHJlZml4X19jbGlwMCI+PHBhdGggZD0iTTAgMGgyNjJ2MzIuNEgweiIgZmlsbD0iI2ZmZiIvPjwvY2xpcFBhdGg+PC9kZWZzPjwvc3ZnPg==;" parent="1" vertex="1">
                    <mxGeometry x="179.97" y="250" width="150.03" height="19" as="geometry"/>
                </mxCell>
                <mxCell id="20" value="" style="endArrow=classic;html=1;strokeColor=#000000;exitX=1;exitY=0.5;exitDx=0;exitDy=0;" parent="1" source="11" target="22" edge="1">
                    <mxGeometry width="50" height="50" relative="1" as="geometry">
                        <mxPoint x="330" y="240" as="sourcePoint"/>
                        <mxPoint x="380" y="190" as="targetPoint"/>
                    </mxGeometry>
                </mxCell>
                <mxCell id="22" value="" style="shape=image;imageAspect=0;aspect=fixed;verticalLabelPosition=bottom;verticalAlign=top;dashed=1;strokeColor=#99004D;image=data:image/png,iVBORw0KGgoAAAANSUhEUgAAAggAAAB1CAYAAAAr3xlVAAAAAXNSR0IArs4c6QAAIABJREFUeF7tnQn4vtWYx7+MJNkGEyZZU7YmCROyVLKVjDUpayhblrITQ02DGTQhSjXJMPZhMkSL3djGbkpkGMsQppImg5m5PnXey9s77+99z3nOfZ7lnPu+rv8V1+95znPO95z3nO+518vJZYbAFSTdTdJPJX3NYXEEHAFHwBFwBFpG4HItD35h7M+XdLikQyS9TtLFjo0j4Ag4Ao6AI9AqAk4QLp35a0o6VNLTwkJ4kKT3tLoofNyOgCPgCDgCjoAThEvXwBMlvX5uObxQ0mslne9LxBFwBBwBR8ARaBEBJwjSlpIgBAcuLIBdJZ3R4qLwMTsCjoAj4Ag4Aq0ThOtKep6kg5YshZdLeoWkX/gycQQcAUfAEXAEWkOgdYKwm6QPSNp0g4k/TBJE4cLWFoaP1xFwBBwBR6BtBFomCJgWOPz3XbEELpJ0c0n/3vYy8dE7Ao6AI+AItIZAywTh9pI+FzHhb5Z0gIc9RiDljzgCjoAj4AhUg0CrBOE6kk6UdK/Imby6pAsin63xsVtKeoHhwI6TdLphe1NpahdJe0u6qkGH/0vS4wza8SYcAUegTgSOCiH8nUfXKkHYWtLZCaidKmn3hOdre5Q8EU+X9CKjgaGROcaorSk18w5J95d0RYNOsx5Zly6OgCPgCCxDANP49XOgaZEgXE3SxyVtnwgct76WnRX/RNKrJOHYmSvfDbfflrQIfy3pCZKukgteeL/F364RdN6MI9AEAk4QEqeZTfVMSdskvsfj35K0bYf3anllk5BQ6kijAT1U0juN2ppCMydL2sOoo7cI69ioOW/GEXAEKkTACULipEIQ/ifxnfnHzwpRDRlNTPrVK0l6jqSXGIzil5L2DNocg+ZG3cTRkh5rZFogBTjk6nejHrF3zhFwBIZGwAlC4gywqV4+8Z35x8+VtEXG+zW8+qyQQMpiLD+RdA9JX7dobMRtnCRpP6P+4WBLxVEXR8ARcARWIeAEIWF94HtgUVuhdVMDkFP1kuqXFkKJ7U9manYs+lGiDRJwvWZJGu+u38LExfpzcQQcAUdgHQJOENYhFP7ORv0fkq4R+fyqx3Cw21nSjwzammoTlMQmogHSZSE3kQSutcnBkv5c0uYGA2O9se5qxMkAHm/CEXAEFhBwghC5JB4i6W8lXTny+XWPfUHSXSURi96qUOAKokCOiFy5n6QPVmZXxxT1shC5kIsP7+8k6bMWDXkbjoAj0AQCThAipvkOkt4nicJMVvJ9SdwO32XV4ATbIVwP2/qfGfX9WpUVxiJvxKuNsPmypH08csEITW/GEWgDAScIEfP8RUm3jXgu9ZEvhbC/lm91HILPlYTjXK6QI+DY3EZG8v4NQ6THow368zVJ+0v6vEFb3oQj4Ai0g4AThDVzTdz56yXdoNCaeOuaYk+FPjuqZk+RdE+jHtWQYfEPJD3GkOw8VdKbvBaI0QrzZhyBdhBwgrBmrj8SwuhKLQlUv+QF+HCpD0ygXeL7KYt9PYO+/m9mGKpBF7KboPonVUL3ym7p0nXF+mKduTgCjoAjkIKAE4QVaBF3zsGFurekvE7SU0p+YAJtUxWT6pgWgte/RSImi76ktnEjSaRUfmDqixs8z7pifbk4Ao6AI5CKgBOEDRCjSuMrJFE/oLR8M1Q6/IfSHxpx+zgqvtEoidQvJOGwOEUhDPETRh1nPVFBk/Xl4gg4Ao5AKgJOEDZAjKJCTzZKbRszKZgycNb7l5iHK33m3qG2Qm4xov8O9vupaWW2ClEdJH7Kld+GPBN/mduQv+8IOALNIuAEYcnUPz6oqP+4x2XxqxD2yC26Zfl5bv3xAN73JN1pYsmobmWYMpqy0KS0JpzWxRFwBByBLgg4QViCGrcuHLv6lh9KepKk9/f94RF979aSvioptxQxWgRwJMHVFOSPQtEpHBRzhZwdaL9YTy6OgCPgCHRFwAnCAnIHBg9yqxTAqRODR/8JqS9V9jzVMnMJApBAErhJP2Lk+BDW+DBJbzHqJ+uHdeTiCDgCjkAOAk4QFtBDczCk3fbicOs9OWdWJ/7uVSVdYDQGwvxwOB2zbBYyQFIKO1dYN2hNWEcujoAj4AjkIOAEIaDHjZUkO0fnoGn0Lhv8eyqtThgL0WmSdo19eM1zbw83dKPmzJshd4OF0M57JT3IorElbVDmfLHU+U2D5uN2K75JVMl9JJE5dH6s/G/Kp7uMH4Flc89++WJJmMc2ko9LetoS3xrm3WrdD43eFRY6gJnwLyRRH2YjgcCTav+YhQfQnvJvLOIEIcwEhzLq6LEIYX8fkIQ3eotCAafvGIUrYpPHzPDLEQLJ5vpTg36x2Z4haTeDtuabwNQ202wcKgkH3isafYPkTTPtDkXLhp6f+bF2HeJ/SvpN15cX3gP3eVPnr43Kzcd0D7PXLFSY3yI+LRz0VsL+9pnQGPM+paJ1aDjR+iHXl0QqfishVTwF2phr5LxgKrVqP7UdJwihQiMb32tS0Sv4PPbzHQ292gt2tVjTN5Z0jlHrJ0oi5fDQh9DicC6a22xyhspGwvolSVSucCBAXDgkKBbF7b+0vG2u75RVP7/0B5e0T7XWR2V+986SPt2hDTSYpHOfNzNxA33lXFtoFUtph2afQVNws9CXvrK7Uvb9neEyxKVgrML8QAz4jT3UyE9q3VhJuQ6RYh+0Ip7rvjn/dycIIZUyeQjGJtx60WpAFloUwkwp4WyRrIqwR27Abx4RkBDAT0naNLNPrA/MKI/MbOeakraVRP0RbozXyGyv6+tHSPpHSd8w9EWJ6csQBAESTJVY1NSEON9iRUdLEoQtw22Y2/FQeyGmqD0Dif96zIT19AyE6dohtwqhyEMIxPDHkii8dmGPHWieIKDCI6HO4T2CnvIpkuf8IOWFyp6liqaVCg+y9TxDrUQO1LeU9NE19tvY9lkfrJOuQmIq0lxjniDz4liEuSLkFdNJHyrovggCxAs7NYTsieFQjMG8FEFA64EG9eGSNonpSOFn/lXSISFM9yuFv7Wq+W0kbR3yidx9wH7Mf/qZgSSc2lN/miYIqPXYGMdcbvmg4DjZqi8CtQmoRGhlW3/2gtq2p9/Z//sMN/4HGGzIrAuqjXa1D28ecm+AC7ekMQolwd/dA1EuTRBmZgTMGPsEkpCCtzVBuEuoM4PNm9/Z2ATtGk7jkERuzn0Jjrd3lPRgSffv66MJ30GDALEkqRwa1pLSNEHA1vpSSRzCYxaqHGKXbVW2C+pXfrS5Mob6BKgLjzKqXkkGzq6pqfHJ+EMjv4XceVn3Pt7eHBQlC0+VJAiQL27otwmlvNeNd9nfLQnCLqEo2A5dOtLjOzjfcgg+X1If2oSbhDNh3x7H2PVTZEnl7MIJu5Q0SxBwBsLWye1k7PLa4GA39n6W6h82+kdLeoPRB1CnopUYSijGRFEmC3lhR/MYjmGQ4ykJ4V/kKfmrQp0uRRAwY5JbhVtfjlgQBMwJ9wghePjATEU+FGrVlCIJnAc7hVB3kpZNRXDqPEnSF0LUm3W/myUI2AEJSZqKUAIYu1yrgqMQpbfxHs4V7HfEIHMj7VseF27sFnU+SCXdRQUKjtj3F3Ma9I1Fl+/hi0D/iTO3lhIEAa93tEX7G3Q2lyCggaNCrRU5NRhSUhNEVRDtQK4P1OtWwlnAesLf6U+tGu25HfYytCyExltKswSBsKopMUU81XO93S0XzhBtPSGYGiy+jac2KvazLBpLaAN14F4Jz696FHV16o3q5UEtaZG10WgYyc2QZZNqq9jOLZPKlCAIlvtMDkG4g6Qjwy05GfARvcCBhXMvmiS8+nOFPfXveggfze1nzPv4aVAR+J9iHo58plmCMLUsXmyELOTcULbIdTHKx24YqmxibsgVMrmhamWz6UswZ/EDvo7BB1kHrIeUAxLVPLVGcEycupD3gQPvJYYDsSYIHOg4olpJV4KwvaTjQl4Vq74M2Q6XJTQJhOLm5svgMO0jz0dfeH1T0jMkWeWwaJIgWNqA+5p4vvOTEDPd5zfH9i1KGHMLtijmRKz1AyWd3cMgsT9j98fh1EKInWc9xArkAA0Mce61CCZCSIJFcigwsSQI5HEgn4TFOp3NVxeCQKge7w0Vv19qrZGqGHMAt+aulz2cH+9dqoMDtvttSZgyP2bQh+YIAgfCu4x/uAbzENUEIW0466zK8R3V0IQfIv0rBMHCpgsMeHGT8re0oBJHg2BxYDD/rIPY0FfszhCUrtEOpbHJaZ8bJOQHv4RcsSII+Hdw8Czm6M/tXypBIPkRtRDwzK9RviuJfCJdC5PhzzJlU9uqOUXDghkGjHKkOYLwbyH2Nwe0Id8l3PFJwVFnyH4M+W1uwcT+72fQCZydsOWXTEaFQyS3XCvVPpsiyWRiBOcrVI61boRgQLpqIjIgjjliRRCIkFmVEbFrH1MJgmWq8q59Lv1eV60qTn23NiLspcfYpX3MMLsHgtjl/dk7TREEUreyuU5ZUKd9UtJdpzwIg76TlhaVuYWgqvx8hqpyXR+oeGdlKyejG7fCWLUqIbLYamsXNjLMTySg6ioWBOHckFvCWnvAmFIIAjleKAJmVVirK6Z9vIc/Cvk8YgWNIenbLbR5sd8c4jlqN1BlNSdaqxmCQLgRNuda1G2Es5C3vGUhdTJVOC2kRDIqNiASmVgVAcM58+/nKr2tGjeFlvDyR91tLTh4otblH176RIOsEzaqk4OZA1yuvO6FDn9nrJgbYk0vi5+wIAgduh39SgpBiCWQ0R8PD3IznRUNum/kDRUij4kNIWrAmjxRw2FWeXLdeKgiSXZGfHgsZfaboE1+7+QnWSc4XXNpRcCkVJQaWTKpRdNFmiEInwtplbuANMZ3Tgs5AfhxtCokTuLQtPphWd8oiFagtkHMAbpuDplnyNDp6x4Mf981qNw5mK2Ew+FnknDyzQkRJu4c5zJut1tYdS6081hJJ3RssxaCQAliNnZLIWMnTqHUrMlJWEY+F3KZUC3U4nf7w+CsyH/XCdkscUy0/E1ADAi3pILn3us6sOLvOLSCK+ZTtD+WQgIoNKQpEU+z7zdBELDF4VVcmyfvWyRR8bFlOSXY2iwOd9SOVjnf+aFTBMwqoQ/zzHzHCOpWbtOo3K0Ez2iyteEdzWFhIfwe+V3y+7QSKnYS2UCuhFSphSBwEFj8HsCP8ug4uqGtsyxod3wIAeUw7NLXbwUNFvkdfh050WiwOIithN8EmQwtIyEo74wzMySPYl5WAs5dfhPVEwQy8JGKcqoZslYtEJL94LDIQm1VUKNzQ7dg3aimrarZsRGxIVkI88s8x5bhhUwQ9241FmyY3I7OtBjMQhsUS8OfhAI5pCS2EHIPUHMjVYYkCDid4r+waBog2yVaFspwx5gY7hR8lLocuot4QQ6ogVEqgyu+ORSMwq8Gk1iMYCbGsRjNIQ7nsUL1TDRL3KYtBD8gcorEOgunfhPMKaCGpsVCMAd1KexUPUE4NiQXqtVZh02DxZQbzmKxCIdqA7szYXy5dm3UhWQ5zM1EBvOnLKtF6WT6RKXG2CJFHAyo2a1qTaCaxIZcMhQUEs+tCfuwRQpq6h6gysYckiJ9EgTIAIcdDnYI/f1nScz3vEDySI0MCebvhKyuEg5Pi5snWiIihTikSktMtkkOKg5jbPusyVThkmgR9cR32R/YJxbnKrVP655nX0cLaGWG60IaqyYIsOlXS0INVavA8mHijLNlOcdIVY2tn8xzOWGPrDtK1VoIhwLxzNxYYgR1PSGVFqYn7Koc3F025Ji+zj+DkyiRHhTS6rKRLX6PW2lqopg+CALOYvgPcdgRq97VeWwZvpQnZgy54bSo7NlPSji4brQuVmEPOYUgk6YcYtVFrAgCZccxA7Dv9iGQBLKvxjphruoT52Dqb7lqggADzq2g1sciyP0Gqmd+zF/MbWjC7zN+iFKu4xOe+RTX6Xpz4vbGAY3/Qa4wn4wr1rTA97iFU8wmV3BEhJh8JrehhPdxrKTCqgWhp5xxahrtkgQBvwBMRYyP75QQMoJubdAwZjt8OfoUNLyLvgSkDea2zvrPSR3MunplKMaUMyYSK+Gn1LdJF5IOec41o54hCSxSpFqCQJIIVI1U6GpBSIZjFU43VbzwssZDPlfQImAeSPXWZpPbx/AAYD6Z11ghGdKjOvR7sX0KQHFrIVtj32IVfUGdCm5fJBaLlVIEgWyP7EU41mESLCUWBAEfiCGqfM6H5X4/+D7gMEzF0lzBaZVw41xBq0JCrplZKLe9lPctNKRdfKyqJAgscLzHuQG1Iqi02RBRSbcq2N5xzrOQz3ZwaEJ7AEvnlpErzCPzmWKqICoA7/DcG/jM9mwVrZCKBX5DREvkCqailCQxJQgCoaGMBRV3SWHt45+Qq4pG45pKjK3GhQ8RKdQx71lowWb9siAIJBxDs0LyqSFkX0n8Lsjn01UgCKyPlGiGKgkCDiSkXcVztSXhx8Um1yXetRacuDk+3GAwOHvh/MjNL0ZIdIJNGRW/hZwYPLVT2rpbB7X6YvsQHBwsSzolrhsTkQ1syLlEZwwEgdwV1H4pLeTHYP5zb/8W/h85Y0WTYOn8h18G4ZkUrcqRrlEAOd9cfDdXQ4p2iFDplIrA1REEYlJhjLkLwnJi+2qLrFw4efVpN+5rbLHfscw/T1gQG0OMLLOhxry37Bnmj8gBvNxTxIIgEP3AGhpacAajsFqOsBGSeplbfIxYaxAIdc2NiInpN89YJIIDb8ube2zfSz6H7R7fpBzBJwnfERIiDSn41cQmStuonzh5pkRFVEcQUOehimlVzgox69iRW5XdJJ1qMHhsx2wOlGleJ3gHW2Ro45aA7wG2zlSpiSDgbEda6R1TQZh7Hls2+U9i/RCsCQIOs7HkJGOYl7xqQRBIsDWEfT137KvetyAIEE1u3qXSV6eMP7cPTROEe4aJtEoukTJxY3qW5CMUdGpV8AXARGAhMGgO63V5BXJ/uLO+4vtwL0mQkxTBnEb4XG4eAeyTXUPJUvob8yxjybG58o2tEkJWLQkCCXk4tK3WxTq8cgkC/iaUh05dd+v6NfTfLQgCFSMvHHog4fskFMuRpgkCKjJUk60Lmzw3pxKZ76aALXZUoldIDZwrbPDYw1d5QWer4UInmS/mLcWJaDY+HCNb1hptNM9DEAQ0Ftt1SNTUda1CpDCH5TjH7hDWT1+EputYU9+zIAip3xzz880SBAv7zJgnNrVv1DqfVQpLfbeG51FRE1Zm5XR12AamBmLt0djkOoeBOfPFvHURJwjLURuCIFBSvlQK3mWjpB4J2tMcocptjdlYnSBcdlVcFHKr/E3kYsm+/FhtwJH9XfoY4THEfxOe5fJ7BCgnih22VeFWRAbCqxgAQCpc0rySSGkmJC4hmUuuWp/2fhRUvF276gRhHAQB7Q9RGJDTvsQJwnKk2f8g9lYplvuaz9LfYW1S2yNGJk8QCC8jcoGqcC6XReDJoRCOZdjQlDBmbdzfMMzs4JCCdqaGRaWfo9adYUl75D0gRXNXcYIwDoJw51D6t+s8dnnPCcJy1AgxJVT5Bl1ArfidpggCLDGlqlfF8750aK07LGLTJzdCrnMP4OKLwI0EpyWcAiGlFqltyRiXSzScIDhByNnbajQxkKK49Ro1y9ZEMwSBG+LDeshSlvPDG8O7YzADDYkDpYoJmbMQbiT8e4eku1o0GBICpRZRWfy0EwQnCDnL0QlCDnrTercZgkD9+NrCckostYeGLH8l2p5Cm3eUhFOORZ4CslTSFmYti0ydZF9kfnLFCYIThJw1VCNBeHQoo21R/joH27G92wxBoJDNq8aG/gj7QxUyHDlbFjIT4sRKKtcxCfPC/OSKEwQnCDlrqEaCQDQJNXnwQ3L5PQI4VlO3JUYm66RoVdY2BqSpP/ObUPgnNrRl6uNd1n8y8lFX4R4jGhzzQUEm5idXnCA4QchZQzUSBEzQlF5/fg4wlb1LmCOZYWMv1pMlCMSMwxBd4hAghS/hPn3lho/rVb9P4bAISbh7v59d+jVMFcToE95oIU4Q2iUI+GG9UtL1MxZSjQQBODwPwmUXxc9COHVsCvBJEgRy1T/VKDlNxm9qUq9S6pP6BPeZVK/tO0tJ3GfZN5vcIjkV8LCG0VsIZOOY4Bth0V4tbfSdKGmIMEfMZoTJ5vjY4AuDzd5qPY5l/ThBuOxMNJFJkZrcrddb6PIDJIkLoXov6PJyJe+QqZCDeUhTA9XlILldUipvNA1Uk3yAQbQGJLKmhGMfSvDxsKjFMARBYE3k1mKgDS/WtPzXxX7xiUr2v18napEnp0GgqhZe35tUMmF9D4MiTuRGaFmo9knVz6GE8MgSG05N1RyHmBsnCF7Ncdm6I232YyRRSK01mRRBIN89k7VNa7NkOF6qth0n6WmGbU6tKWy1HAaUhe5bwB38mQdrsSAIv5B0eIITk/UYhmyvdYKQUwtkyHlb9e3rhLX88MwO3jcUxMpsZnKvT4ogkLmO+HO8U126I/B+D/25JCPiUyRRT6FPIeQK/EsImqHTDX4fR0p6tqRYR6YSYxmizSkThNtIOjmzngeYD5lUjd8i5k/WnqWwnldVY435Fs59FMT6UszDFT0zGYLwVkkPdtOCydKjNgO32ANMWptmI5ioPiKJW3dfQi6G4yWVqo2Bsxq/kdyskYRdslHjGd+STJkgcLCTACc39feFkq460KRz2/+BpF+G+in8XizEgiDQD8p4Uy+lxqqXG+E8CYLAZo724F4Wq8XbuAQBvJU5APDybVm4EXD7Ki1U1XySpA8U/tBekt5rFOHDret1kgjJ7Fv4zVPECjI1K45Vug9TJghgA0G4WSZIYL2ZJJzZ+hQqrkIM5uVtwfbPGiAKq6tsIQm/I34bubJdKMve15pc7O+mPc/NJAgCxXZybUi5C6PG9/nRPFMSt4ZWBa998iKUzLAIvuAM3qWF4mVESeBUZSFomU7seVNC1cxvnjTq5K0g81sprcs8RlMnCCTeYr6IaMmR84KfFyFxfQj9/Z6k627wMUqtU/+E9dA16+hJhmWfiYTCX6NvgeigxaC8PL+HPuZn9ASBRfMmSXv0PRuNfA8NAtnGWhaqgXKwlhLw7VNTAznAlGEljw8HdtfNOaUfqJnRWjxo7qXdQ0IpiEJJmTpBAJufS7KoPYDGC+JcWp2+pSTm94SIiSUjIqbmH3fwj4FoPlkSmgoLITEZBzQHdmnZPPiWfGHO/DObH/auktqMURMEbnXE7R9YegYabh9fBFJv8qNrVd4lidTdJbQI4Aq+4NyX4HHN7+bGhh8kLJRY+5K3eaJLXr5CW7hzSEtNP0pIDQSBTKlWydCIGCOk/MxMFf9Gc4Vpj/kmJwkRajGCSZBkZzj6piZ1wonT8qLJvkH/ObhLCTUTiLbigkGeinlhXjgbISlnFerAqAkCCwg7+ZBJbQrhPqpmUX/jyDOErXksQHw43GSs+4Pad4iQ0ieGSnbYk62EA4ONilLXloLKlFoZD5H0iDUNo2ZGu0A+D2s7eQ0EAfj4HVtFI6BKp+DR18I/i3lnTZL18c2SbtSxQSKQuEVDiGLNT4dKevqSg7ZjFy55jaR9kGeiHD6T09DCu2go0Gq+TNL2a9olpwrn5NmBzBl2Q6MlCNRZOMLIscQSsBrbIs0qqX9xcmpV8P7mB2Yp5wR/AJJ79S0l6048KgwG34r3dBwYzlYcEjeVdIeg/o1tCtUuGyfajNNiX4p4rhaCgM/IIyPGm/II4bO0+8UM+ztzzWF3gxB2aKHh4nDG9IXpIUaODthYV7eFPGPGYA/JIQr4N9w2+BCl1ozBkZ+9hoRO+HRYyGgJArdanFNc+kGAhQXDLm1z7Gc03b5iFQ7F1ymORTrll3brislbmBq4/a27gXT9GPZu8kkgqDk/tsZUhfPhzHmSDRqzzu27fjwkTaP+xFcknZHRzuzVWggC4ylll0a1P8OaNc7/578bybZzJg/mmjw2Fj4S899LKWd/i6B16Kq5WLfMqInx9vAQc/DBNRcvSgZQbGtm3txV0v3WfWTF3yHtmD5IdvbtjHZmr46SIOwQ2BiJKVz6Q2DPHsLw+htN+pdIwGVRepkvc4ug+M3QWhlINuGKpZOLUZWSugdsKBsJBwNF1qzl8yFJ0CmZ6XBrIggQw+dZA73QHgSRUET+u5EQFvjAwv1IIQh0hXBjfAesHBZXDY/DelXEA074aEGs/Z8wA6LVeEOmI+UoCYK1F3bh9VlN86iosJe3qkXAUeo54dadM6ngB47gObTcMRSnwuRQs2B3xy/huaGyYZcbdE0EARMOWPQZPTPU+uLAx3SQIvtLemOBgzmlD308S9I0THJkp7y4wwdHRxBwVjpKEhubS/8IDFWNrv+RLv8iKj8iD3IY/aclgeNYhL4QOljK1DCWcdIPNn5C5lonCGBBRkQIb83VWx8bGSK5bI2SSbUFB3i0POA0eYJwLUnPqHxBj2kzXdYXVON7r1EVj30MOf0jaQue9OTe6CIwbvDLcVTq8t1172D/JVkMNuFahURU+HyQrreL1KRBYPxEMjDvtVYh5HfK4RcbxbC4JnAIJDqjZgEbLgiY4bpEqY1Kg4Aa9H2SSJbiMhwCB0t6fUfGOVyv7b5MGBZe4NjvUgW7HxE4YxTswcSC40Vem3C4k0gnJ59HbQSBOSbJDrdHwm1rkn2DM15uQbFdQoGzmrCZHwv7GP4IXUOCR0MQuNmg8tmq1pma0Lgo+XvznlJ5jhWWnTpoAXDW4sY2Zh8OQstI7GLtST7kPBLihs8Hseg5UiNBAA8iRsiGSVRNDYLmgNDsrofePAb4HWHOfndlF1MSJ2FewnE4B6fREAQSQxCu5DIOBNhsSWBj5dU/jlHF94JiQSTkQYUZI+CEBmwK5WCvHW7apSMbYnDLfYY8DESLLBb66dJurQQBLHBaJLkQNQ2mLNyIcbyz3JcgCfwmSPk8RM4S6/k4RBKi2NG/AAAGo0lEQVRrmaRiOUWu6NcoCAL5uEnskOMYZg2yt3fpppKrwpsyjqSsJVNbjIATeE1FIAf8+DcqkDOFcXA7IjS3qw16cYw1EwTGykEI6ScEcl3GyjHOP6YS5qiLA2rMePDZeEDQJsQ8P8ZniFwhq2IXf4Nl4xmcIDAp2xRIETnGyZtin6xStk5x7PR5n1CoaB0O6/4+1vFj0sNvAlv1FITD4csh25x1f2snCPN44ZNAOu6xa5Eg3qjIOfjwi+pD9gvfgvDnVsbso79oCcgFQc4T68J7gxMEbKKkpHUZJwLkAyfneauCExMhgmRg20jAp2Q1yNLY41SJpgRbNWGeYxW0jPjHkIq2hLREEMCPA5dsm9cb6UH4q2ASGSqXA6p6ajcQXXelEgsus03I009CNkvMRyVkcILAbaCF+OwSk9dHmzBTKoqN2fGuNA6ELb46bKSL30KVdzVJbGZTF9K8cguh7jyq6LEINRfYDMmwWlJaIwgzLPGzwSmZKJcxmHn5LVHTANI6dA4HIn6IjqGiItq2MZgRMamRRpmz84Dga1DqdzEoQaAYhUUO9VLgeLuX2rI+Gn4gLeNBMSsKBC0K65dbWJckJGPFkxK/bDyUXyZn/RBqVkwJOHyeF8o/c1MqLa0ShBmuhJiTXAmt2RCCU92sGBTpwcckVBYm/BvifBdJODEPIRTNosw1mo3v9NCBQQkCtqUhNp8ecK3qE4TvUVDk1KpGlTYYIhqoLnqzudf4sXKYrspFn/aVcT2NkybjvoYktAuL9ehL9JbENdSv4JZE0qNVeeytv986QQBPfGkIIUSYb+a9tEBMsKMTmje0xiBmrMcHrSHaBJxkSwv7zKwg1oNLf2yh/cEIAo4gpEQdu5NMz/Mx2s991U1Bl6jfqTI6E2zhUwhrtFhUqFnnK+ARV28hZD2k4t1MiEen6NIQQg2Y3BTvFAHq42bXBz7MN/OO4KdAGK+FjwpaN/zOZp72FPDKidXvA4tl36DY06vCHzAzkjvFwheJZF+fk/TT0DaVGa3KN6dixXrOuhh08d4m3Ibqb54xMXW6hnueRYuKLTYvwHA9LfdlbguEiGGrBQfwyMncV66n5Vtm41gmhE1ST+UmkshIiYkAeynJmchVsBiihq25a1rr8qP0L8wQYD73CGanRVRuGvxDCFdHI8xtl3klrw3zvyjkMeBvVqF4Y5glHBnZH5ZlUcWnBxPF1iFaCH8afLr4TXAOLgrkCf+LVZVRxzDmqD50IQh4h+KZOpXQqiggGnjoY5LwG2lZWLtURnuIJPBwuSwCEITbLSEI5IK/wMGqEgEIAtq0eYKAmWgjglAlCCsGBUHAwRbzJGce2hIIAr+JZQShKnxSCQKbK3XKsWu6TAsBbss46qWWVp3WKFf3FrUrqtaPN6w9qGk+fSyOgCNQEIFUgvApSXcq2B9vuiwC2IwhCceU/Yy37gg4Ao6AIzB1BFIIwmEhH/jVpz7ohvuPDRnn0v0bxsCH7gg4Ao6AIxCBQApBoNQsji4u00aAsD6c9WYevNMejffeEXAEHAFHoAgCsQSBw4TkK6RzdZk+AswnXvwujoAj4Ag4Ao7AUgRiCAKOXTi23dsxrAYBPHHJLjj18rHVTIgPxBFwBByBsSGwjiDw9yMlkQzDpS4E3ijpxaFgSF0j89E4Ao6AI+AIZCOwjiCQ74BDxKVOBJ4TCOAUM6HVOSM+KkfAEXAERoLAKoJArgNC4kqVohwJBM13Y19Jb20eBQfAEXAEHAFH4DIIrCIIVJyiTK5L3QgcKumoDdKq1j1yH50j4Ag4Ao7AhghsRBBIu/miELng8NWPACWP54vu1D9iH6Ej4Ag4Ao7ASgSWEQRMC2gP3PegncXzCkn8q7X0cTsz6SN1BBwBR8AIgWUE4c6SjpO0rdE3vJlpIHBQmPeLptFd76Uj4Ag4Ao5ASQQWCcJWko6QhOOaS1sIUOJ19wFrl7eFto/WEXAEHIGRI7BIEHaW9ImR99m7Vw4B6jSgSbiw3Ce8ZUfAEXAEHIEpIDBPEHBMPFbSfabQce9jMQSof35usda9YUfAEXAEHIFJIDBPEG4l6euT6LV3siQCH5K0p6TflfyIt+0IOAKOgCMwbgRmBOHakjgYdhx3d713PSGwiaTf9vQt/4wj4Ag4Ao7ACBGAIGwq6VRJ+B+4OAIg8A1Jt3YoHAFHwBFwBNpFAIKwWXBKu3y7MPjIlyDwKSeNvi4cAUfAEWgXAQgCce+QBBdHYB6B8yWRNMvFEXAEHAFHoEEE/g83gM+8M1irNgAAAABJRU5ErkJggg==;" parent="1" vertex="1">
                    <mxGeometry x="390" y="159.84" width="150" height="33.75" as="geometry"/>
                </mxCell>
                <mxCell id="23" value="&lt;span style=&quot;background-color: rgb(255, 255, 255);&quot;&gt;&lt;font face=&quot;Verdana&quot; style=&quot;font-size: 13px;&quot; color=&quot;#000000&quot;&gt;&lt;b&gt;デプロイ&lt;/b&gt;&lt;/font&gt;&lt;/span&gt;" style="text;html=1;align=center;verticalAlign=middle;whiteSpace=wrap;rounded=0;dashed=1;fillColor=none;" parent="1" vertex="1">
                    <mxGeometry x="430" y="130" width="70" height="36.88" as="geometry"/>
                </mxCell>
                <mxCell id="24" value="" style="shape=image;imageAspect=0;aspect=fixed;verticalLabelPosition=bottom;verticalAlign=top;image=data:image/png,iVBORw0KGgoAAAANSUhEUgAAAFAAAABQCAIAAAABc2X6AAAAAXNSR0IArs4c6QAAAERlWElmTU0AKgAAAAgAAYdpAAQAAAABAAAAGgAAAAAAA6ABAAMAAAABAAEAAKACAAQAAAABAAAAUKADAAQAAAABAAAAUAAAAAAx4ExPAAAJrUlEQVR4Ae1aDXQU1RXenf3J/iSbzT8bg2IEhVqkCAhCbKEgBwtHQEtagRNEhVKsUlCkINVW+TkE/4UAVVHUWor0tKVARWopYKGACJwgJEAE8kcSNhuy2d3s72y/YZI548zs7ptNWDZh5+xJ3tx33333m/vefffd95QVgycobqSHupHAMlgTgLu7xRMWTli4m32BxJDuZgYVwUlYWPRJuhkhYeFuZlARnBvOwmrRJ5AmKPW69CeLDAVDNDf1kOaIITXo83vKztn/tM2xe7/cbokAK7Xamzau1vbuBenBQEBuH53Or1SpdP374qfOzbmyaass+USAzUUPAa333IX6xat8F6pldXAtmJVqtXHMiKwXf502e6rzX1/6aurIeyGaw4aR90KidWVJPKCFJkG/3/HZXseOPUqtRj98EDlacBIB1t7aUxEMer45I0v0tWZ2nyxHF9r8m2V1RDSk8SEVNN3R2UtRlC5JlnJiZugQ9Hjb6H4/Coxuch4iwHIESvPCyff8dJ06J1O6mpxKB62vbLB/uoO8hYAzRoA1lmwGLU3TDpdAA/JXpUaND6cb8L0uABguAMC8FZXVU58iRyjgNI4pyFm5SECU+xojCyuUyvCaqTLTk/rdRul0/rrLbnhHmg7PH3VtrACHVlCVmpKxcE7y2Pu4jxJobLIWr3f++0DoRtHXyACsykqPuh9VulmyLeIZy9qXURt0ezynzwVsV7R35GvyLDmrFtv/+pl1xVpxK2WSltWESkkW10akEAOmqFt2boooThYDnFD2SwuA1rX/yOVlbwEt2zx57A8zfzPXNHmc+2ipY9c+gUzjyGH4CYjkr8SAFQr/pQZyuQJOYMMsFRBNU8Zr+9zqPXu+/rkVCJ64Wsfn+/AKI2c+N8e552DQ6+OqUMBYCDQ1o6A06DEd+FUkZWLANF354OMkEiV5EA/l/Vk4PllDNW3cwkfLNscERuiOAa/7wZ2th4/zZTr3HmpYuhqUlAmjEU7zq0jKRKEliaAoeNQ9stHKe/qcZFtPWQXoakuWZG3UxOsJ2N/QCL0xMiW1p67S/fVWydqoidcTsLecsWHymAKx9lSyUT9sIOjeM9+KaztCuZ6Am7fuRO4idfpk3cA7+Riw3c16cR4sDBcdsDH+qRMfYqfF9alUkuzIgMRXWcM1kiz4zle1/G0XfLWlZJl9yw7nfw7SDif8tnnaJO3t+ZBge3OjZMOOEGUDxnYsb/OaiF36a+srJz4Rhk2Vlpr2i2kpk8aCByZNnToRPz4/VjLL+uWNb77v2neIT+9gWTZgJhNQHnleBa46pFDKJd2Rn/Pqb5n9UzCIZca5e59+8ABtn15wYIG6y66DX2OhMj00DstSj1eX2rdst77yB3b7EUogOV02YIQBNdPnkXcg5gTa3HdWYaPnPvaNdeVa7/kq8IgjKvvWnaaHH8h4eqapcALtdNlKPhKLioIiG3AUffCbYCTDtkDrOnCUCbC49AWfiS0Hg8DsKa+wvPE788xCX2UtlijPqbO+6ktiXnJKrL102pzpGMnuYyfrn1kWDm07Ak9pef3zxUGvFxnZ1iMnamYsaFr/cXtlNP/lW5hS6r7fV9wVkxw/fRaeJqlfH7YWWrLREseszslIyb8fs7HxtXfF4STHJii0/u9Y5U8eDTS3COjRvcoGrNRoct8rFneGTezFcUWqNDNXi7FXNXk2n5MyMbE+pqvgQ/B5JMudhRbCZQOGfTAgxWoFmh0gBn0+rtbfYBOzgeL84r+S9NgQZQOGl66dvTiUcti4hallW2E/GKq5LLq/san1aKncswHZgGXpJGbG1IX7UVuYfZLgQaKfdrXyiWAzjrpXd3d/TW4OlWyg3R7fhSr30ZPYMGIxaz34NX58fpJyjABzSXwEVcjpSGpWUzQfWR62Sp2VkfHsbCOOeKjvZP9wBmIcNRw8rv2HbWs/9FZclBQVhhgjwFhFmzdv096SF0YVLmWdPG4kch1UihGe37XnkHPPAV91HUI3rN7IbOoG9U8eXWC47x7DiCFN73zS9O7mMDLFVUqS27T5R/6BvOm3Q78T64pldQol9ZGJGQuegCic/Tau3sBmcwSS8S3MM36aOm0Sxov9L/+0Fq9T0Ezem+QhCjxoe4sCJ0NGA4nEjvAg1Z4x/3Fof/n3bzQsKZZEC/l0i9O2ZlPd/JdolxvhZ9qsqeSdEgH2nGH8qnH0CHK5UXAifZn9wjxkp62r17ds/yKiBAQkdU+/gKFnnjklqe9tEflZBqI53PzJ3/WD78pcNEednYHcGqFoEjas3ty6bX6sELMUIxkhNElb8LhPnMYNAETamUt+BZ9H0opoDkNQ+lOPmoseJpEoi8ddWlb72EI0wabi5h0fwCdXT5nrq6oNLwTZWdPPH4THwuBHMIuGaF47a5H7+KnwDVFLZGHw2d7+wPXlV4YRg5hLLZEOiiL2yjH4LrZlReB7oToWm8hozSZLyXJsniGkacMf4cmRu8bm2fjj4Z0JGNIx9rjhx2ncWQX9oP4QhcgpvEBVO1qswEgMsMy45gHAyGCHb8vWEjktEkEd5NH0YpZoz6m2wIORRgl146O99MvnOR/OJs8QwJHoIBRK0uaa8LDraPudKMzJvI9e568LodBCGexY8JcySue3BdrGDWDFVcTtgSSgInGZvXwhi5lBu46Zt1gj+LZtAxNgDpODrR4BNslXUqcl2bgTiewJA7J2rOPBygSQSGsCc6MpxVQ4HlUM2rlLuZHM9a7t1xtlwtta8WLh1sMnoLT+ngEcDATJcMK4dJe55Mk2tLx5y7GhYBjKnFEg3cUnhirHD+DjSC0Yht2tykjjdGUx47VtJF+xc1VcAYuZYRRzb44wrxAvgJEhcny+H5EWrrByYFAA5qrCuTUznglIoQUDdhEIDZAqb/2KGSMRn3gBDEVtb7+PPGbK+NGCA36cyCAfKIkEhz6IKxFvWZevIdwwxRFg+C1byYeILrNXLMI9ZUmEfCKcNlw3jn6at2xHwpRfFaasmpd7e5jqGFchC414Qz/kLuP9BapUk+dkmeC+Q5s+FJX6swnZLz+rMqXg5Mm6Yo3i6spEoi3p5oFEVmfxYJSmzXoE3ggrkGPXXjhwT2lZEPsEtUrT02L40TAkunDTB921bNuNmz5c/ohEgXgEDL01PXOR0zKEvhqMXQfucgmuf3RhwKzq2Nbrhw7UDxmQ1K+30qCjr9jZ4yVc88FOOLrzxDi1MImtouOJIy8dHQC5rRKA5X6xrsafsHBXs5hcfRMWlvvFuhp/wsJdzWJy9U1YWO4X62r8CQt3NYvJ1ff/0h6zbJshbjoAAAAASUVORK5CYII=;" parent="1" vertex="1">
                    <mxGeometry x="220.00000000000003" y="90" width="40" height="40" as="geometry"/>
                </mxCell>
                <mxCell id="30" value="" style="text;html=1;fillColor=none;align=center;verticalAlign=middle;whiteSpace=wrap;rounded=0;strokeColor=#000000;dashed=1;" parent="1" vertex="1">
                    <mxGeometry x="190" y="80" width="90" height="60" as="geometry"/>
                </mxCell>
                <mxCell id="25" value="" style="shape=image;imageAspect=0;aspect=fixed;verticalLabelPosition=bottom;verticalAlign=top;image=data:image/png,iVBORw0KGgoAAAANSUhEUgAAAFAAAABQCAIAAAABc2X6AAAAAXNSR0IArs4c6QAAAERlWElmTU0AKgAAAAgAAYdpAAQAAAABAAAAGgAAAAAAA6ABAAMAAAABAAEAAKACAAQAAAABAAAAUKADAAQAAAABAAAAUAAAAAAx4ExPAAAKoUlEQVR4Ae1bCXCU5RnO3ptjz8TcQIBwFwgCpWiLDhZEAuEIuRBoyEFAOlMLau04005nKjOlragtKZgIKCEYoDkEA0EwCir1KlixFOXSkAAh2TvXbna3z5dd//2yu/+yVzKTsDtM5v2f/93v+57//b73+hfO1VlLwu6nD/d+Iku4hggPd4uHLByy8DB7AqEtPcwM6kInZGGXRzLMgJCFh5lBXeiELOzySIYZELLwMDOoC537zsJ8l0cwgABHKEw++KpgZJLbOQwnz7S+8Ge3t4IIDraFeXIZ2+qjFs4LnzWN7W6w8EG1sNVo1FTUKJ9a2/3lpZai52gO8vXZwBUlT3Z9/h8aD7o82BbWVb1t1ujE0ydFzJ1Jk7HjaZOdcFonKPIgEY6c/9CIQ6WiyeMsnd2aN45g6YqNT9IE2HBaJyjyYBDmSiUxv90sGD0iemsxFq07/I65XQ3ykY/MoTmw4bRO4PJgEFZuXseTS7FW8bRJEfPmWHuMmr2HcYkTG8bhMByAq/cccsUZhaAIA04YlpQuf9za2wsDYsXKTWvCuBxdzYne1jbhuNGRjz1M09DXNrjFaZ0A5QEmzOXEPL8JDLUHatt3lPfeahWmpkQ9/qjVaNKUV2Hpig2rcZfhwIYzCoELA0tYumKRaNK43jtt6terrKZe9WuVhGTJag6frz96qrfljnD0CPCnabDhtE4g8gAS5ilkyqfWYXHtfy2zdnVD0Nc3mq43CZLiJcsXYpOryw4CVBTncng8hgMbzigEKAwgYeXmX3ClUZ3nvuho/Ni+SotFVbofsqIwhyMWEf7fNwtGJEYtmU/TcODp/XBax295AAmLH5yCZXU0nKEX1/H+uZ6vv+HFKGW5S8MsFvsmL8zlCKicj8GL+uP0QP7KA0hYV3UMq5KtXUm7JSA2I8vXZnIlkYZ3zxqvfc9PiJUsW0hTYMNpHf/kASGMTIMbIdZVHyduaewoyeL59OK6Pr3Q9dmX2O3ydZlhFqt61wHclRdko5ZyqLHhDg0/peAT5kUrRlTvTqp4BUmFqo8MYg9HKKAXqNr5Ji5luRlQJpv88jX+A9HSzCdoHTac1vFDDj7h6KcLeTIJXJE0c7Gh4X3jlRvYsZDpxeEYw5PBbymKcsOsMHIF7srzVwFxqLHhDg1/pCATDp85NWrRI/BGhEBBNlcsthmTyBHh9ALV/6jAfkZ84ifGdX74Wc/FyzylXJazlNZx4NlB+10G71eJ4+k5ApGRTsTt+B3Cr2pXBUcgEKYkW81mfc2J8B+n2eTuL75ixkeRyE+KE01M5cklHY3nem+34qgLJ4zVH6lHisKo2fGJzjij4KsQTAvL8jKQOZmaWrT7q1V/34elyFYv5ylltEyvDzEJ3JBpwbF1fXKh+/zXOAuy1ctoHTac1vFJDhphfmyMvCgPc7dt3wUa6Gl0nv0UvlpekEPkM5/YZHpxSK11/zyOoIVeB3DsC/zFM0K4otXYcFrHezlohKO3FIFSx+mPuv513jY9Ob0Wq3TlEzilJPb+INOL0+ytQtaJmlE0dUL3vy8iYoGtfM1KWocNp3W8l4NDOHxOGgo9LL39pXJmbuPV7/THG5FCISwRuf49yMr+jQ6zSquprMNXkIfir82Y0tyltvqZGYoNZxS8F4JAGDRintuIKVEMoJql5zZeuoJL0bgUchcn1mgiJ7bvklHTVtRYdHq49/CfzOj56jI8M/y5DDkJ9WHDKRVvxSAQRvKIVrPxepP24Nv0tNyoSHlhDhB1X3+j78TW951YUkIxH4uhQ7OPdLlIacXhqHeTxEuWlY6chNGB4MCVchr3VQ6UMJIKRQFh1Q5f1esIJ0AUxXkIUd3nL3ac+tC2LHR2LJ1dET+dLU6bTC9Ue+iY+a5KNCkVvb6e/11FjoUMRJ6fResQvC9XQUOXxn2VAyUc88wGjkhoOPGBUz9ZMCpJmp0OR9X2lzJmTWa1FhELl8pf5jMgBNLNKie1sXIjGkBc9e5KpF/SlYvg+Wk19WsH3eK0zj3lgAjDVnCwlo7O9lf2OM0UvaUYeYiursH4zTX6lrayFo6K9KXn9WtZ6uveNTXdEqQkS5Y8hmwU1RLSb9uJYL7uwAv8N7L/hFHcRD+zAatBuWNuUzHLghDx8KyIh2Za9B0kf+z/If3nPaSbRWIv3c0ym9W7iTIOAqiSOtlikWT8HEeGHsCOL1vghNM6nmX/CcvXZ6FZY/z2Bk4gPQcMi5gMBE4be5i+ZZNJ2YhunkvZaDh51vjtdX78A6g0TN81o++BocCfHoENp3U8y34SFiQnkGrWam37U6mtVGCmkeYsgdM23bhp68syOCMgD1P1WZ6UjXSjw2q19wbWZyGH0ZS/hVRckj4fhRfzXQhsOK3jQfaTcPSzJdh4+nfeQ9pIj47MmVR8cNovlTs5bVrNUTauSqdxBGEMCN+OBNPUfNtw9BR8GGnlUh82nFLxJPpDOPLRubYjqnp1r9PYyk3rEH6xbvTunG71u7RY7WUjMWa/slG18w1oytasQCFha+7iNSpqEvrrahgfVYcLTuuwyT4TRoS0vSJSlb7pdERFE8ZIMhbAsO07Xmebj8GJMS/8lxgTTS/qg5qp86PPuZERiLe9t++iuoRvUyBcUR80uu04Xtb4+OH4+n8ekPSiNdFz6Upz/haEWXq6hF3bkCEiqKJCpHFX2dyuaX1hO4JQYvl2+O2mFUWIVYyacPyY5IqXrSZT04oSq8UysrYMx+fmmqfpCIe+p1ucGYRN8K0BgHQi9g9bOFzOnWe3mVvbnQZVFudxJVEcPg+9C8//BMnxSFf0NQ3IroSpo8Cn62PHEcC7RTwL0fgxsLOh4QOeVIK3cPzYaAPV8bV2dvEkUYjnTrjTklwvfbNwQukfw2dPx6uwtm07XcfC+rwJj+jXxb/8e3jgplUbueHi5Mq/ETmzBLGKGROeOflwKS5vZm+26A0j68o54eLm/K1ohjE6OA5ucUbBreCDhaMW/AyhyKzV39n6Ivat63DYhGaV5p7/TDdv8ZPjRRPHormjqz7xgyxFo4cZE/UTTCeePJ4fLdcfOw3HJk6bIoiPNRxvZHSs3T1ucUbBreCt00JgVP66EEOgX4PVuB3LexClj71UTE0hsq3Rk5pCj6Apewu/CUGZDV+o2V+DBBb1o1PVodlf7Ranx3GSvbUwareIuQ+iLkUHx2kIPy5REvIUUvHUicirdEfqUe7bZJxYZjTUVfZTmhCrrz2JriA8Ij8p3nDsNKODjeYWZxRcBa8sjDRQmpeBjIrkVdZ+ntl1RC8RzZ5D9lJxxhSH3L9s1Ow7DAPiZy7iGT/SVtbZ+wSzp9NTsOG0Di175bQSSl8Mnz0NmxAv++gvByjzE+NxUhB4WzY8j5wZGRV6t051CPphOKg2HVTI+PUEnIj5br8AAU8Jf4mo3lL8m3suiX9PDSgIkuLwF8ED7++90fdJhx9Hil7tgRrSlI+Ncepm2Yay61QdlWYtJjoyiesUcHKuoCvilYW9jDeuo3uDIBph30LTwyw+6Xie1CvCnocYWne9clpDi5Ln1YYIe34+Q/9uyMJD34aeGYQs7Pn5DP27IQsPfRt6ZhCysOfnM/Tvhiw89G3omUHIwp6fz9C/G7Lw0LehZwb/B/yFw1obItOJAAAAAElFTkSuQmCC;" parent="1" vertex="1">
                    <mxGeometry x="270" y="70" width="40" height="40" as="geometry"/>
                </mxCell>
                <mxCell id="34" value="" style="endArrow=classic;startArrow=classic;html=1;strokeColor=#000000;exitX=0.343;exitY=0.011;exitDx=0;exitDy=0;exitPerimeter=0;entryX=0.456;entryY=1.043;entryDx=0;entryDy=0;entryPerimeter=0;" edge="1" parent="1" source="18" target="30">
                    <mxGeometry width="50" height="50" relative="1" as="geometry">
                        <mxPoint x="310" y="160" as="sourcePoint"/>
                        <mxPoint x="360" y="110" as="targetPoint"/>
                    </mxGeometry>
                </mxCell>
            </root>
        </mxGraphModel>
    </diagram>
</mxfile>